PathFileType	4	(X/Y/Z)	C:/Users/opensim2020/Desktop/walking_exp_matlab/subject06_walking18_straight_04.trc																																																																																																																																											
DataRate	CameraRate	NumFrames	NumMarkers	Units	OrigDataRate	OrigDataStartFrame	OrigNumFrames																																																																																																																																							
100	100	8	47	mm	100	4623	409																																																																																																																																							
Frame#	Time	LFHD			RFHD			LBHD			RBHD			C7			T10			CLAV			STRN			RBAK			LSHO			LUPA			LELB			LFRM			LWRA			LWRB			LFIN			RSHO			RUPA			RELB			RFRM			RWRA			RWRB			RFIN			LASI			RASI			LPSI			RPSI			LTHI			LKNE			LTIB			LANK			LHEE			LTOE			RTHI			RKNE			RTIB			RANK			RHEE			RTOE			*39			*40			*41			*42			*43			*44			*45			*46		
		X1	Y1	Z1	X2	Y2	Z2	X3	Y3	Z3	X4	Y4	Z4	X5	Y5	Z5	X6	Y6	Z6	X7	Y7	Z7	X8	Y8	Z8	X9	Y9	Z9	X10	Y10	Z10	X11	Y11	Z11	X12	Y12	Z12	X13	Y13	Z13	X14	Y14	Z14	X15	Y15	Z15	X16	Y16	Z16	X17	Y17	Z17	X18	Y18	Z18	X19	Y19	Z19	X20	Y20	Z20	X21	Y21	Z21	X22	Y22	Z22	X23	Y23	Z23	X24	Y24	Z24	X25	Y25	Z25	X26	Y26	Z26	X27	Y27	Z27	X28	Y28	Z28	X29	Y29	Z29	X30	Y30	Z30	X31	Y31	Z31	X32	Y32	Z32	X33	Y33	Z33	X34	Y34	Z34	X35	Y35	Z35	X36	Y36	Z36	X37	Y37	Z37	X38	Y38	Z38	X39	Y39	Z39	X40	Y40	Z40	X41	Y41	Z41	X42	Y42	Z42	X43	Y43	Z43	X44	Y44	Z44	X45	Y45	Z45	X46	Y46	Z46	X47	Y47	Z47
																																																																																																																																														
103	1.02	-545.76489	1660.05493	870.84485	-549.2807	1655.56213	1003.2572	-677.61676	1601.80322	870.05377	-679.05145	1602.44653	999.45233	-676.78265	1450.52673	928.76776	-714.49872	1122.19702	947.45148	-567.94055	1373.33264	940.11456	-530.75629	1196.71301	941.57806	-756.0459	1283.125	1009.61157	-606.37762	1400.02783	774.04309	-584.83447	1198.04724	701.90186	-568.93353	1086.39331	687.58527	-504.54059	949.81183	670.00787	-417.99109	857.71179	718.02014	-471.74017	835.39343	676.91528	-409.81696	768.51569	682.88782	-623.7403	1409.70593	1097.04773	-670.83057	1214.24243	1186.26123	-664.88684	1092.82751	1201.12317	-641.03406	975.68842	1220.77271	-564.25305	844.22919	1193.73193	-621.10986	840.15918	1231.39197	-576.63831	768.13977	1235.71594	-532.63055	956.91693	851.70215	-541.34534	973.72827	1073.06702	-691.72266	987.6427	874.88672	-692.61365	993.90979	1043.30078	-625.37531	645.29919	806.07751	-648.31519	482.07104	827.50378	-726.34363	235.57072	838.53595	-760.05969	67.68892	888.36639	-800.80054	56.37693	933.42828	-617.24756	34.10894	888.28552	-537.94983	646.24475	1144.53699	-497.57867	528.78802	1116.36877	-478.62115	266.53918	1130.62854	-442.65784	81.44155	1097.01501	-473.50201	47.76699	1051.87061	-285.46295	72.26427	1094.93018	-648.62744	1698.19299	925.5188	NaN	NaN	NaN	NaN	NaN	NaN	NaN	NaN	NaN	NaN	NaN	NaN	NaN	NaN	NaN	NaN	NaN	NaN	NaN	NaN	NaN
104	1.03	-540.59808	1659.41077	872.11542	-544.19843	1654.78918	1004.59363	-672.31537	1600.98999	871.34729	-673.86316	1601.50171	1000.65436	-671.44324	1449.81982	929.81042	-709.25592	1121.50378	948.27234	-562.61267	1372.51184	941.01874	-525.5932	1195.89221	942.29071	-750.61926	1282.41064	1010.59198	-601.09485	1399.40369	775.08264	-579.54236	1197.49023	702.88074	-563.61853	1085.78259	688.67017	-498.80994	949.52319	671.21722	-411.59354	857.9931	719.71204	-465.49847	835.21344	678.97479	-403.25882	768.44543	685.17761	-618.14856	1408.78687	1098.0343	-665.82446	1213.35583	1186.95007	-660.30121	1091.97473	1201.83997	-637.03662	974.69922	1221.45679	-560.84344	842.76996	1194.53149	-617.74664	838.95764	1231.97974	-573.92987	766.77081	1236.46167	-527.56573	956.33057	852.07269	-535.63586	973.23584	1073.56116	-686.62354	986.7652	875.58612	-687.15857	993.10742	1043.97839	-620.36755	644.53802	806.79553	-643.48999	481.33252	828.30151	-723.82281	235.55756	839.08173	-759.50208	68.04674	888.61127	-800.78363	57.13694	933.96118	-617.05713	34.15473	888.41174	-531.07349	646.30396	1144.69775	-492.56741	528.03839	1116.29016	-470.74103	266.12881	1130.75574	-431.51108	81.50292	1097.07275	-461.92856	47.529	1052.00562	-274.08459	74.29651	1095.19421	-643.54797	1697.39026	926.81427	NaN	NaN	NaN	NaN	NaN	NaN	NaN	NaN	NaN	NaN	NaN	NaN	NaN	NaN	NaN	NaN	NaN	NaN	NaN	NaN	NaN
105	1.04	-535.42389	1658.76221	873.56335	-539.04022	1653.96826	1005.97278	-667.11371	1600.18372	872.53235	-668.64209	1600.51526	1001.93372	-666.08453	1449.04053	931.0188	-703.62701	1120.62134	949.0246	-557.16589	1371.6825	941.98438	-520.41736	1195.00378	943.0683	-745.26544	1281.62646	1011.69281	-595.87415	1398.76538	776.21405	-574.23987	1196.8877	703.91614	-558.41437	1085.06348	689.80347	-492.96896	949.11346	672.7323	-404.96704	858.3551	721.43292	-458.91486	835.07507	680.99896	-396.52951	768.45978	687.66138	-612.58655	1407.85583	1099.15613	-660.70905	1212.52368	1187.97717	-655.60229	1091.02429	1202.66077	-632.9303	973.6076	1222.25208	-557.38605	841.21796	1195.38	-614.56195	837.71063	1232.63928	-571.04285	765.26538	1237.17786	-522.42139	955.65845	852.48694	-530.0722	972.5553	1074.11621	-681.43195	985.88165	876.31714	-681.7146	992.27838	1044.75781	-615.41949	643.77722	807.53705	-638.90082	480.62598	829.0946	-721.32959	235.53708	839.62445	-759.01202	68.37823	888.89813	-800.17572	57.40162	934.0694	-616.85571	34.13457	888.55707	-525.30573	645.59656	1144.69092	-487.49374	527.34094	1116.26697	-462.89435	265.58206	1131.04431	-421.0097	81.505	1097.33398	-450.98642	47.28949	1052.08899	-263.55484	76.26302	1095.61621	-638.4447	1696.54236	928.25	NaN	NaN	NaN	NaN	NaN	NaN	NaN	NaN	NaN	NaN	NaN	NaN	NaN	NaN	NaN	NaN	NaN	NaN	NaN	NaN	NaN
106	1.05	-530.18469	1658.06934	875.07147	-533.77191	1653.08435	1007.41241	-661.84619	1599.32385	873.95093	-663.32062	1599.51831	1003.33575	-660.61469	1448.21155	932.25378	-698.32257	1119.80383	949.90228	-551.85852	1370.73499	943.07886	-515.13312	1194.10132	943.9057	-739.81012	1280.80554	1012.86456	-590.58563	1398.08423	777.36896	-568.95599	1196.29041	704.97638	-553.17712	1084.34937	690.95319	-486.89105	948.63812	674.62268	-398.28418	858.82452	723.26178	-452.18796	834.94104	683.17511	-389.57489	768.60333	690.31311	-606.9552	1406.81226	1100.31958	-655.51447	1211.51965	1188.99365	-650.81024	1090.00867	1203.56177	-628.73639	972.42224	1223.07117	-553.84644	839.54181	1196.2865	-611.06116	836.32007	1233.35876	-568.0174	763.70172	1237.96228	-517.24921	954.89117	852.98926	-524.47559	971.81049	1074.69299	-676.13428	984.91736	877.11334	-676.20642	991.40863	1045.57764	-610.44104	642.88116	808.31995	-634.42676	479.87863	829.83472	-719.11066	235.44559	840.23779	-758.56085	68.64806	889.07257	-799.90112	57.84446	934.25079	-616.67529	34.14409	888.64923	-519.57629	644.85394	1144.84338	-482.23096	526.48151	1116.22717	-455.36026	265.0296	1131.2063	-411.41455	81.50743	1097.2251	-440.74075	46.98243	1051.99683	-253.83772	77.74233	1096.17468	-633.27142	1695.65796	929.75	NaN	NaN	NaN	NaN	NaN	NaN	NaN	NaN	NaN	NaN	NaN	NaN	NaN	NaN	NaN	NaN	NaN	NaN	NaN	NaN	NaN
107	1.06	-524.9472	1657.28088	876.50378	-528.52997	1652.20667	1008.91559	-656.48523	1598.41113	875.50519	-657.97968	1598.47473	1004.80408	-655.20313	1447.37195	933.61334	-692.93561	1118.91833	950.84619	-546.41895	1369.8147	944.23181	-509.71796	1193.15857	944.74658	-734.26935	1279.86597	1014.03998	-585.22339	1397.32153	778.63379	-563.63788	1195.59045	706.06012	-547.98303	1083.55566	692.06757	-480.97141	948.31635	675.93512	-391.43124	859.42212	725.18018	-445.27689	834.95062	685.48444	-382.36411	768.78064	693.07715	-601.2713	1405.69897	1101.57947	-650.21191	1210.44275	1190.12207	-645.87579	1088.89966	1204.50061	-624.47662	971.18994	1224.01733	-550.2359	837.81708	1197.24255	-607.59595	834.97675	1234.28015	-564.98358	762.0437	1238.84778	-511.91986	954.01685	853.54803	-518.914	970.91675	1075.39709	-670.78943	983.91608	877.92651	-670.6026	990.48608	1046.4032	-605.63165	642.00989	809.1413	-630.21967	479.11627	830.56152	-716.92072	235.36597	840.91559	-758.15161	68.88467	889.16986	-799.70776	58.25148	934.35834	-616.61743	34.15709	888.74023	-513.58875	644.23438	1145.33716	-476.76755	525.67133	1116.50781	-448.242	264.4086	1131.39343	-402.48114	81.36023	1097.35461	-431.30463	46.53143	1051.74756	-244.86072	78.70195	1096.70337	-628.02576	1694.72595	931.31958	NaN	NaN	NaN	NaN	NaN	NaN	NaN	NaN	NaN	NaN	NaN	NaN	NaN	NaN	NaN	NaN	NaN	NaN	NaN	NaN	NaN
108	1.07	-519.68665	1656.47412	878.09399	-523.13824	1651.2843	1010.46313	-651.22223	1597.51721	876.98975	-652.6131	1597.42029	1006.41309	-649.65894	1446.4895	935.05133	-687.59357	1118.06421	951.8457	-540.84912	1368.9021	945.42194	-504.33041	1192.19336	945.6911	-728.73242	1278.91235	1015.31677	-579.81232	1396.54468	779.97302	-558.38153	1194.90747	707.18762	-542.86542	1082.74304	693.1944	-474.84903	947.82727	677.78064	-384.4249	860.21844	727.23108	-438.14551	835.0022	687.78259	-375.15485	769.26337	695.96814	-595.55157	1404.52039	1102.89258	-644.83698	1209.27356	1191.23621	-640.83179	1087.72949	1205.55676	-620.0697	969.86719	1225.00952	-546.53973	836.03302	1198.24402	-604.18427	833.62793	1235.39465	-561.81964	760.36847	1239.79761	-506.5567	953.12811	854.1449	-513.07166	970.138	1076.05029	-665.33752	982.86957	878.81787	-664.91205	989.5412	1047.36499	-600.78082	641.10767	810.11646	-626.2608	478.37869	831.26129	-714.75574	235.27232	841.54358	-757.7937	69.0797	889.27899	-799.58246	58.63868	934.40289	-616.40515	34.1797	888.83984	-507.88464	643.3689	1145.86145	-471.08047	524.81958	1116.88794	-441.56665	263.76669	1131.41235	-394.47571	80.93598	1097.10291	-422.7836	45.96852	1051.44153	-236.79385	79.43963	1097.32654	-622.75745	1693.76929	932.96912	NaN	NaN	NaN	NaN	NaN	NaN	NaN	NaN	NaN	NaN	NaN	NaN	NaN	NaN	NaN	NaN	NaN	NaN	NaN	NaN	NaN
109	1.08	-514.43536	1655.6947	879.77979	-517.81598	1650.34216	1012.15515	-645.79773	1596.59753	878.67395	-647.15088	1596.34521	1008.06512	-644.09692	1445.55017	936.50214	-682.05157	1117.13672	952.86554	-535.35834	1367.91028	946.76373	-498.80084	1191.23169	946.68085	-723.23004	1277.95508	1016.66693	-574.35767	1395.68933	781.36938	-553.14551	1194.18176	708.32642	-537.85455	1081.88562	694.34845	-468.84818	947.49005	679.22223	-377.22159	861.26495	729.38556	-430.80969	835.20953	690.15973	-366.8092	769.98639	699.20135	-589.82117	1403.33313	1104.32617	-639.37897	1208.0636	1192.44495	-635.66724	1086.53174	1206.68958	-615.50031	968.50116	1226.10583	-542.78192	834.22314	1199.35559	-600.27521	832.18549	1236.51025	-558.5069	758.58246	1240.79272	-501.09949	952.2193	854.84131	-506.89114	969.40118	1076.80432	-659.82483	981.81598	879.75043	-659.18707	988.61737	1048.32312	-596.17316	640.23383	810.375	-622.50677	477.62836	832.00977	-712.68481	235.21294	842.19586	-757.52026	69.34721	889.38416	-799.48254	59.05981	934.48322	-616.39545	34.02571	889.05518	-502.58981	642.31238	1146.2926	-465.42233	523.94415	1117.35693	-435.1189	262.98557	1131.5791	-387.21017	80.31111	1096.94934	-415.18246	45.26498	1051.20264	-229.55145	79.56585	1097.80273	-617.49933	1692.81592	934.76636	NaN	NaN	NaN	NaN	NaN	NaN	NaN	NaN	NaN	NaN	NaN	NaN	NaN	NaN	NaN	NaN	NaN	NaN	NaN	NaN	NaN
110	1.09	-509.06516	1654.8678	881.56543	-512.3819	1649.36719	1013.8941	-640.46204	1595.61011	880.44275	-641.56708	1595.21948	1009.77356	-638.4248	1444.60938	938.08673	-676.4328	1116.18518	953.95099	-529.68323	1366.95117	948.11963	-493.26227	1190.23254	947.74567	-717.60449	1276.91479	1018.00946	-568.75452	1394.88647	782.8277	-547.97253	1193.39148	709.50562	-532.97107	1080.88745	695.42737	-462.71005	947.14807	681.31464	-369.83353	862.56433	731.6402	-423.06351	835.33228	692.81476	-358.83047	770.93463	702.28662	-584.04102	1402.0304	1105.76147	-633.89764	1206.79419	1193.67493	-630.41406	1085.28162	1207.88904	-610.86572	967.09955	1227.26404	-538.94946	832.3175	1200.51416	-596.53729	830.66229	1237.77441	-555.18958	756.82843	1241.96643	-495.5589	951.25195	855.65918	-501.48618	968.23346	1077.68689	-654.25671	980.80804	880.69855	-653.21942	987.59576	1049.30725	-591.65509	639.45905	811.09418	-618.9469	476.95123	832.71173	-710.89038	235.213	842.8075	-757.20251	69.66015	889.53308	-799.39154	59.52779	934.58014	-616.36633	34.04292	889.18402	-496.53329	641.51996	1147.2406	-459.61472	523.0603	1117.93298	-428.88754	261.98853	1131.88428	-380.77847	79.5107	1097.12927	-408.62387	44.36596	1051.03479	-223.31404	79.23193	1098.29346	-612.13074	1691.77649	936.60791	NaN	NaN	NaN	NaN	NaN	NaN	NaN	NaN	NaN	NaN	NaN	NaN	NaN	NaN	NaN	NaN	NaN	NaN	NaN	NaN	NaN
